<?xml version="1.0" encoding="utf-8"?>
<!-- Generator: Adobe Illustrator 24.1.2, SVG Export Plug-In . SVG Version: 6.00 Build 0)  -->
<svg version="1.1" id="Layer_1" xmlns="http://www.w3.org/2000/svg" xmlns:xlink="http://www.w3.org/1999/xlink" x="0px" y="0px"
	 width="106px" height="16.9px" viewBox="0 0 106 16.9" style="enable-background:new 0 0 106 16.9;" xml:space="preserve">
<style type="text/css">
	.st0{fill-rule:evenodd;clip-rule:evenodd;fill:#03363D;}
</style>
<g>
	<path class="st0" d="M0.3,16.1v-3.2c1.8,0.6,3.4,0.9,4.8,0.9C7,13.8,8,13.3,8,12.3c0-0.4-0.1-0.7-0.4-1c-0.3-0.3-1-0.7-2.2-1.1
		C3.3,9.3,1.9,8.5,1.3,7.9C0.4,7.1,0,6.1,0,4.9c0-1.6,0.6-2.8,1.8-3.6C3,0.4,4.6,0,6.5,0c1.1,0,2.6,0.2,4.6,0.6v3.1
		C9.6,3,8.3,2.7,7,2.7c-1.8,0-2.7,0.5-2.7,1.5c0,0.4,0.2,0.7,0.5,0.9c0.3,0.2,1.1,0.6,2.5,1.2c2,0.9,3.3,1.6,3.9,2.3
		c0.8,0.8,1.2,1.8,1.2,3c0,1.7-0.8,3.1-2.3,4c-1.2,0.7-2.8,1.1-4.8,1.1C3.7,16.7,2,16.5,0.3,16.1L0.3,16.1z M15,16.3v-16h4.5v16.1
		H15V16.3z M23.6,16.3v-16h11.6v2.9h-7.2v3.6h6.3v2.6h-6.3v3.8h7.4v3.1H23.6L23.6,16.3z M38.4,16.3v-16h5.8l4.1,10.3l4.2-10.3h5.6
		v16.1h-4.3V5l-4.7,11.5h-2.8L41.6,5v11.4h-3.2V16.3z M62.2,16.3v-16h11.6v2.9h-7.2v3.6h6.3v2.6h-6.3v3.8H74v3.1H62.2L62.2,16.3z
		 M76.9,16.3v-16h5.2L87.7,11V0.3h3.2v16.1h-5.1l-5.6-11v10.9H76.9L76.9,16.3z M94.1,16.1v-3.2c1.8,0.6,3.4,0.9,4.8,0.9
		c1.9,0,2.9-0.5,2.9-1.5c0-0.4-0.1-0.7-0.4-1c-0.3-0.3-1-0.7-2.2-1.1C97.1,9.3,95.7,8.6,95,8c-0.8-0.8-1.3-1.8-1.3-3.1
		c0-1.6,0.6-2.8,1.8-3.6c1.2-0.8,2.8-1.2,4.7-1.2c1.1,0,2.5,0.2,4.2,0.5l0.4,0.1v3.1c-1.5-0.6-2.9-0.9-4.2-0.9
		c-1.8,0-2.7,0.5-2.7,1.5c0,0.4,0.2,0.7,0.5,0.9c0.3,0.2,1.1,0.6,2.5,1.2c2,0.9,3.3,1.6,3.9,2.3c0.8,0.8,1.2,1.8,1.2,3
		c0,1.7-0.8,3.1-2.3,4c-1.2,0.7-2.8,1.1-4.8,1.1C97.5,16.7,95.8,16.5,94.1,16.1L94.1,16.1z"/>
</g>
</svg>
