<?xml version="1.0" encoding="utf-8"?>
<!-- Generator: Adobe Illustrator 24.1.2, SVG Export Plug-In . SVG Version: 6.00 Build 0)  -->
<svg version="1.1"
	 id="svg3336" xmlns:cc="http://creativecommons.org/ns#" xmlns:dc="http://purl.org/dc/elements/1.1/" xmlns:inkscape="http://www.inkscape.org/namespaces/inkscape" xmlns:rdf="http://www.w3.org/1999/02/22-rdf-syntax-ns#" xmlns:sodipodi="http://sodipodi.sourceforge.net/DTD/sodipodi-0.dtd" xmlns:svg="http://www.w3.org/2000/svg"
	 xmlns="http://www.w3.org/2000/svg" xmlns:xlink="http://www.w3.org/1999/xlink" x="0px" y="0px" width="274.7px" height="62.5px"
	 viewBox="0 0 274.7 62.5" style="enable-background:new 0 0 274.7 62.5;" xml:space="preserve">
<style type="text/css">
	.st0{fill:#03363D;}
</style>
<sodipodi:namedview  bordercolor="#666666" borderopacity="1" gridtolerance="10" guidetolerance="10" id="namedview9" inkscape:current-layer="svg3336" inkscape:cx="48.681217" inkscape:cy="9.7305543" inkscape:pageopacity="0" inkscape:pageshadow="2" inkscape:showpageshadow="false" inkscape:window-height="705" inkscape:window-maximized="1" inkscape:window-width="1366" inkscape:window-x="-8" inkscape:window-y="-8" inkscape:zoom="1" objecttolerance="10" pagecolor="#ffffff" showgrid="false">
	</sodipodi:namedview>
<g>
	<g id="g3343" transform="matrix(0.44582193,0,0,-0.44582193,-178.93176,216.92246)">
		<path id="path3345" inkscape:connector-curvature="0" class="st0" d="M1014.4,441l-1.8-21.3h-8.7c-13.9,0-21.1-11.1-21.1-21.8
			v-48.1h-24.6V441h23.3l0.5-11.4c4.9,7.8,13.5,11.4,24,11.4H1014.4z M843.7,349.8h-24.6v48.2c0,10.1-0.9,22.8-15.1,22.8
			c-13.7,0-19.1-9.9-19.1-21.4v-49.7h-24.6V441h22.8l0.5-11.7c4.9,7.8,14,13.9,27.5,13.9c24.8,0,32.7-17.7,32.7-36.2V349.8z
			 M749.5,371.1l-1.7-20.8c-5.9-1.6-11.2-2.2-17.5-2.2c-23.2,0-29.9,10.6-29.9,32v86.5H725V441h24.5l-1.7-21.3H725v-37.6
			c0-8.6,2.4-13.2,11.2-13.2C740,368.9,744.3,369.4,749.5,371.1 M692.3,441l-1.9-21.3h-6.7c-13.9,0-20.8-11.1-20.8-21.8v-48.1h-24.6
			V441h23.3l0.5-11.4c4.9,7.8,13.5,11.4,24,11.4L692.3,441z M527.1,359.9c-16.7-8.9-33.4-14.1-55.4-13.5
			c-40.9,1.2-70.3,26.6-70.3,69.5c0,42.7,29.8,69.9,70.4,70.6c20.6,0.3,39-4.9,53.4-17.6l-17.3-17.5c-8.9,7.6-22,12-37.7,11.3
			c-25.6-1.2-40.9-19.8-41.3-45.3c-0.3-27.7,16.6-46.7,43.1-47.4c12.5-0.3,21.4,1.4,29.1,4.8v28.3h-27.6l1.9,23.2h51.7V359.9z
			 M947.2,386.8h-67.5c1.9-11.7,11.1-18.7,22.5-19c11.1-0.3,17.3,3.1,25.4,11.3l16.1-12.3c-11.4-14.1-25.1-19.2-40.7-19.2
			c-27.5,0-48,19.2-48,47.8c0,28.6,20.5,47.8,47,47.8c29.3,0,45.3-17.7,45.3-49.2V386.8z M922.5,405.8c-0.8,11.5-9.4,18.8-21.3,18.3
			c-12-0.5-19.9-8.2-21.6-18.3H922.5z M622.8,409.6v-59.7h-21.7l-0.5,9c-6.7-8.3-17.5-11.2-28.6-11.2c-16.8,0-32.6,8.3-32.9,27.5
			c-0.5,30.3,34.1,32.4,55.8,32.4h4.3v1.2c0,10-6.6,15.4-19.1,15.4c-9,0-17.8-3.6-24.3-9.7l-14.2,14.4
			c12.9,10.5,26.3,14.4,40.6,14.4C610.3,443.3,622.8,430.2,622.8,409.6 M599.1,389.6h-3.4c-11.7,0-32.1-0.6-32.1-12.8
			c0.1-17.2,35.5-11.7,35.5,9V389.6z M995.2,360.4c0,5.8,4.4,10.2,10,10.2c5.5,0,9.9-4.4,9.9-10.2c0-5.9-4.4-10.3-9.9-10.3
			C999.6,350.2,995.2,354.5,995.2,360.4 M1005.2,348.1c6.7,0,12.4,5.2,12.4,12.3c0,7-5.7,12.2-12.4,12.2c-6.7,0-12.5-5.2-12.5-12.2
			C992.7,353.3,998.4,348.1,1005.2,348.1 M1002.6,359.5h2.5l3.7-6.1h2.4l-4,6.2c2.1,0.3,3.7,1.4,3.7,3.9c0,2.8-1.7,4-5,4h-5.4v-14.2
			h2.1L1002.6,359.5z M1002.6,361.3v4.4h2.9c1.5,0,3.1-0.3,3.1-2.1c0-2.2-1.6-2.3-3.4-2.3L1002.6,361.3z"/>
	</g>
</g>
</svg>
