<?xml version="1.0" encoding="utf-8"?>
<!-- Generator: Adobe Illustrator 24.1.2, SVG Export Plug-In . SVG Version: 6.00 Build 0)  -->
<svg version="1.1" id="Layer_1" xmlns="http://www.w3.org/2000/svg" xmlns:xlink="http://www.w3.org/1999/xlink" x="0px" y="0px"
	 width="115px" height="32.8px" viewBox="0 0 115 32.8" style="enable-background:new 0 0 115 32.8;" xml:space="preserve">
<style type="text/css">
	.st0{fill:#FFFFFF;}
	.st1{fill:#03363D;}
</style>
<g>
	<path class="st0" d="M7.1,17c-0.2,0-0.5,0-0.7,0c-1.7,0.3-2.8,1.8-2.5,3.5c0,0,0,0,0,0c0.2,1.6,1.9,3,3.5,3.1c0.2,0,0.3,0,0.5,0
		c1.7-0.3,2.2-2.1,1.9-3.9C9.4,17.8,8,17.1,7.1,17z M8.8,21.8c-0.2,0.2-0.4,0.3-0.7,0.3c-0.5,0-0.9-0.4-0.8-0.9
		c0-0.3,0.1-0.6,0.2-0.9c0.2-0.4,0-0.8-0.3-1c-0.2-0.1-0.5-0.2-0.7-0.1c-0.2,0-0.4,0.2-0.6,0.4c-0.1,0.1-0.2,0.3-0.2,0.5
		c0,0,0,0.1,0,0.1c-0.1,0.2-0.2,0.3-0.3,0.2c-0.1,0-0.1-0.1-0.1-0.1c-0.1-0.5,0.1-1.1,0.5-1.5c0.3-0.3,0.8-0.5,1.3-0.4
		c0.5,0.1,0.9,0.4,1.2,0.8c0.2,0.5,0.2,1.2-0.1,1.7c0,0,0,0.1-0.1,0.1c-0.1,0.2-0.1,0.4,0,0.6c0.1,0.1,0.2,0.2,0.4,0.2
		c0.1,0,0.1,0,0.2,0c0.1,0,0.2,0,0.2,0C8.8,21.6,8.8,21.7,8.8,21.8L8.8,21.8z"/>
	<path class="st0" d="M29.4,25.1c0.4-0.9,0.6-1.9,0.6-2.9c0-1.2-0.7-1.7-1.1-1.7c0,0-0.1-0.4-0.2-0.7c-0.1-0.2-0.1-0.4-0.2-0.7
		c0.4-0.5,0.5-1.1,0.4-1.7c-0.1-0.5-0.3-0.9-0.6-1.2c-0.6-0.5-1.4-0.9-2.2-1.1c-0.1,0-0.5-0.1-0.6-0.2c0,0,0-1.3-0.1-1.9
		c0-0.6-0.1-1.1-0.3-1.7c-0.2-0.8-0.6-1.5-1.2-2.1c1.4-1.5,2.3-3.1,2.3-4.5c0-2.7-3.3-3.5-7.4-1.8c0,0-0.9,0.4-0.9,0.4
		c0,0-1.6-1.5-1.6-1.5c-4.6-4-19.1,12-14.5,15.9l1,0.9c-0.3,0.7-0.4,1.5-0.3,2.3c0.1,1.1,0.7,2.2,1.6,2.9c0.8,0.8,1.9,1.2,3.1,1.2
		c1.8,4.1,5.9,6.7,10.7,6.8C23.2,31.9,27.6,29.5,29.4,25.1z M30.4,20.2c0.4,0.6,0.7,1.3,0.6,2c0,1.1-0.3,2.2-0.7,3.3l0,0
		c-0.9,2.3-2.6,4.1-4.7,5.4c-2.2,1.3-4.7,1.9-7.2,1.9h0c-0.2,0-0.3,0-0.5,0c-2.5-0.1-4.9-0.8-7-2.1c-1.9-1.2-3.4-2.8-4.4-4.8
		c-1.1-0.2-2.2-0.7-3.1-1.5c-1.1-0.9-1.8-2.2-1.9-3.6c-0.1-0.7,0-1.4,0.1-2l-0.5-0.4C0.5,17.8,0,16.9,0,15.8c0-1,0.1-2.1,0.5-3
		c1-2.6,3.2-5.8,5.9-8.4C7.7,3.2,9,2.2,10.5,1.3c1.2-0.8,2.6-1.2,4.1-1.3c0.9,0,1.8,0.3,2.6,0.9c0,0,0.6,0.6,1.1,1.1
		c0.1,0,0.2-0.1,0.2-0.1c1.4-0.6,2.8-0.9,4.3-1c2.8,0,4.5,1.5,4.5,3.8c0,1.4-0.7,3-2,4.5c0.3,0.5,0.6,1.1,0.8,1.7
		c0.2,0.6,0.3,1.3,0.3,1.9c0,0.3,0,0.7,0,1.1c0.9,0.2,1.8,0.7,2.5,1.3c0.5,0.5,0.8,1.1,0.9,1.8c0.1,0.7,0,1.4-0.3,2
		c0,0.1,0.1,0.2,0.1,0.2c0,0.1,0,0.2,0.1,0.2C30,19.8,30.2,20,30.4,20.2L30.4,20.2z"/>
	<path class="st0" d="M27.2,18.9c0.4-0.3,0.5-0.8,0.5-1.3c0-0.2-0.1-0.5-0.3-0.6c-0.5-0.4-1.1-0.7-1.8-0.8c-0.3-0.1-0.5-0.1-0.7-0.2
		c-0.4-0.1-0.6-0.2-0.6-1c0-0.3-0.1-1.4-0.1-1.9c0-0.8-0.1-1.9-0.8-2.4c-0.2-0.1-0.4-0.2-0.6-0.2c-0.1,0-0.2,0-0.3,0
		c-0.3,0.1-0.7,0.3-0.9,0.5c-0.6,0.6-1.5,0.9-2.4,0.8c-0.5,0-1-0.1-1.6-0.1c-0.1,0-0.2,0-0.3,0c-1.5,0-2.8,1.2-3,2.7
		c-0.3,2.3,1.3,3.5,1.8,4.2c0.1,0.1,0.1,0.2,0.1,0.3c0,0.1-0.1,0.2-0.2,0.3l0,0c-1.3,1.5-1.8,3.6-1.3,5.5c0.1,0.2,0.1,0.5,0.2,0.7
		c1.2,2.8,4.9,4.2,8.6,3c0.5-0.2,0.9-0.4,1.4-0.6c0.8-0.4,1.5-0.9,2.1-1.6c0.9-1,1.6-2.2,1.8-3.5c0.1-0.7-0.1-1-0.3-1.1
		c-0.2-0.1-0.3-0.1-0.5-0.1c-0.1-0.6-0.3-1.1-0.5-1.7L27.2,18.9z"/>
	<path class="st0" d="M21.2,7.9c0.1,0,0.1-0.1,0-0.1c-0.9-0.4-1.8-0.7-2.8-0.7c0,0-0.1,0-0.1-0.1c0,0,0,0,0,0
		c0.2-0.2,0.3-0.4,0.5-0.5c0,0,0-0.1,0-0.1c0,0,0,0,0,0c-1.2,0.1-2.3,0.5-3.4,1.2c0,0-0.1,0-0.1,0c0,0,0,0,0,0
		c0.1-0.3,0.2-0.6,0.4-0.9c0,0,0-0.1,0-0.1c0,0,0,0,0,0c-1.5,0.8-2.7,1.9-3.8,3.1c0,0,0,0.1,0,0.1c0,0,0,0,0.1,0
		c1.2-0.9,2.6-1.5,4.1-1.8C17.8,7.6,19.5,7.6,21.2,7.9"/>
	<path class="st0" d="M16.9,3.8c0,0-1.3-1.5-1.6-1.6C12.9,1.6,7.9,5.1,4.7,9.7c-1.3,1.9-3.2,5.1-2.3,6.8c0.3,0.4,0.7,0.7,1.1,1
		C4.1,16.7,5,16.2,6,16c1.3-3.6,3.5-6.7,6.4-9C13.8,5.8,15.3,4.7,16.9,3.8"/>
</g>
<g>
	<path class="st1" d="M8.7,21.7c0,0,0,0.1,0,0.2c-0.1,0.2-0.4,0.4-0.7,0.3c-0.5-0.1-0.8-0.5-0.8-0.9c0-0.3,0.1-0.6,0.2-0.9
		c0.2-0.4,0-0.8-0.3-1c-0.2-0.1-0.4-0.2-0.7-0.1c-0.2,0-0.4,0.2-0.5,0.4c-0.1,0.1-0.2,0.3-0.2,0.5c0,0,0,0.1,0,0.1
		c-0.1,0.2-0.2,0.3-0.3,0.3c0,0-0.1,0-0.1-0.1c-0.1-0.6,0.1-1.1,0.5-1.5c0.3-0.3,0.8-0.5,1.3-0.5c0.5,0.1,0.9,0.4,1.1,0.8
		c0.2,0.6,0.2,1.2-0.1,1.7c0,0,0,0.1-0.1,0.1c-0.1,0.2-0.1,0.4,0,0.6c0.1,0.1,0.2,0.2,0.4,0.2c0.1,0,0.1,0,0.2,0
		C8.5,21.6,8.6,21.6,8.7,21.7 M30,22.2c0,1-0.3,2-0.6,2.9c-1.8,4.3-6.1,6.8-11.3,6.6c-4.8-0.1-8.9-2.7-10.7-6.8
		c-1.1,0-2.2-0.5-3-1.2C3.5,23,3,21.9,2.8,20.8c-0.1-0.8,0-1.6,0.3-2.3l-1-0.9c-4.6-3.9,9.8-19.9,14.4-15.9c0,0,1.6,1.5,1.6,1.5
		c0,0,0.8-0.4,0.9-0.4c4-1.7,7.3-0.9,7.3,1.8c0,1.4-0.9,3-2.3,4.5c0.6,0.6,1,1.3,1.2,2.1c0.2,0.5,0.2,1.1,0.3,1.7
		c0,0.6,0.1,1.9,0.1,1.9c0,0,0.4,0.1,0.6,0.2c0.8,0.2,1.6,0.6,2.2,1.1c0.3,0.3,0.6,0.8,0.6,1.2c0.1,0.6-0.1,1.2-0.4,1.7
		c0.1,0.2,0.2,0.4,0.2,0.7c0.1,0.4,0.2,0.7,0.2,0.7C29.3,20.5,30,21,30,22.2L30,22.2z M9.7,19.8c-0.3-2-1.7-2.7-2.6-2.8
		c-0.2,0-0.5,0-0.7,0c-1.7,0.3-2.6,1.7-2.4,3.6c0.3,1.7,1.7,3,3.4,3.1c0.2,0,0.3,0,0.5,0C9.5,23.5,9.9,21.6,9.7,19.8z M12.5,7
		c1.4-1.2,2.9-2.2,4.5-3.1c0,0-1.2-1.5-1.6-1.6C13,1.7,8,5.2,4.8,9.7c-1.3,1.9-3.2,5.1-2.3,6.8c0.3,0.4,0.7,0.7,1.1,1
		c0.6-0.8,1.5-1.4,2.5-1.6C7.3,12.5,9.6,9.3,12.5,7z M17.5,23c0.1,0.5,0.5,1,1.1,1.1c0.3,0.1,0.6,0.2,0.9,0.2c3.7,0.6,7.1-1.5,7.9-2
		c0.1,0,0.1,0,0,0.1c0,0,0,0.1-0.1,0.1c-0.9,1.2-3.5,2.6-6.8,2.6c-1.4,0-2.9-0.5-3.4-1.3c-0.8-1.2,0-3,1.3-2.8c0,0,0.5,0.1,0.6,0.1
		c2.1,0.2,4.3-0.1,6.2-1c1.9-0.9,2.6-1.8,2.5-2.6c0-0.2-0.1-0.5-0.3-0.6c-0.5-0.4-1.1-0.7-1.8-0.8c-0.3-0.1-0.5-0.1-0.7-0.2
		c-0.4-0.1-0.6-0.2-0.6-1c0-0.3-0.1-1.4-0.1-1.9c0-0.8-0.1-1.9-0.8-2.4c-0.2-0.1-0.4-0.2-0.6-0.2c-0.1,0-0.2,0-0.3,0
		c-0.3,0.1-0.7,0.3-0.9,0.5c-0.6,0.6-1.5,0.9-2.4,0.8c-0.5,0-1-0.1-1.6-0.1c-0.1,0-0.2,0-0.3,0c-1.5,0-2.8,1.2-3,2.7
		c-0.3,2.3,1.3,3.5,1.8,4.1c0.1,0.1,0.1,0.2,0.1,0.3c0,0.1-0.1,0.2-0.2,0.3v0c-1.3,1.5-1.8,3.6-1.3,5.5c0.1,0.2,0.1,0.4,0.2,0.7
		c1.2,2.8,4.9,4.1,8.6,2.9c0.5-0.2,0.9-0.4,1.4-0.6c0.8-0.4,1.5-0.9,2.1-1.6c0.9-0.9,1.6-2.2,1.8-3.5c0.1-0.7-0.1-1-0.3-1.1
		c-0.2-0.1-0.3-0.1-0.5-0.1c-0.1-0.6-0.3-1.1-0.5-1.7c-1,0.8-2.2,1.4-3.5,1.7c-1.5,0.4-3.1,0.6-4.6,0.5c-1-0.1-1.7-0.4-1.9,0.4
		c1.5,0.5,3.1,0.7,4.7,0.5c0,0,0.1,0,0.1,0.1c0,0,0,0,0,0c0,0,0,0.1-0.1,0.1C22.4,23.1,20.5,23.9,17.5,23z M12.1,9.8
		c1.2-0.9,2.6-1.5,4.1-1.8c1.7-0.4,3.4-0.4,5,0c0.1,0,0.1-0.1,0-0.1c-0.9-0.4-1.8-0.7-2.8-0.7c0,0-0.1,0,0-0.1c0,0,0,0,0,0
		c0.2-0.2,0.3-0.4,0.5-0.5c0,0,0-0.1,0-0.1c0,0,0,0,0,0c-1.2,0.1-2.3,0.5-3.3,1.2c0,0-0.1,0-0.1,0c0,0,0,0,0,0
		c0.1-0.3,0.2-0.6,0.4-0.9c0,0,0-0.1,0-0.1c0,0,0,0,0,0C14.4,7.4,13.1,8.5,12.1,9.8C12,9.7,12,9.8,12.1,9.8
		C12,9.8,12.1,9.8,12.1,9.8z M21.7,17.5c0.2,0.1,0.5,0.1,0.6-0.1c0.1-0.2,0-0.4-0.3-0.5c-0.2-0.1-0.5-0.1-0.6,0.1
		C21.3,17.2,21.5,17.4,21.7,17.5z M22.5,14.6c0.1,0.3,0.2,0.6,0.4,0.9c0.2,0,0.4,0,0.6,0c0.1-0.4,0.1-0.7,0-1.1
		c-0.1-0.7-0.3-1.1-0.8-1C22.4,13.5,22.4,14,22.5,14.6z M23.4,16.2c-0.3-0.1-0.6,0.1-0.6,0.4c-0.1,0.3,0.1,0.6,0.4,0.6
		c0.3,0.1,0.6-0.1,0.6-0.4c0,0,0-0.1,0-0.1C23.8,16.4,23.6,16.2,23.4,16.2z"/>
</g>
<g>
	<path class="st1" d="M16.6,16.1c-0.1,0-0.1,0-0.1-0.1c0-0.1,0.2-0.3,0.3-0.4c0.6-0.4,1.3-0.5,1.9-0.2c0.3,0.1,0.5,0.3,0.7,0.6
		c0.1,0.1,0.1,0.2,0,0.2c-0.1,0.1-0.2,0-0.5-0.1c-0.3-0.2-0.7-0.2-1.1-0.2C17.5,15.9,17,16,16.6,16.1z M19.4,16.7
		c-0.2-0.3-0.6-0.4-0.9-0.3c-0.3,0-0.5,0.1-0.7,0.3c-0.1,0.1-0.2,0.2-0.2,0.3c0,0,0,0,0,0.1c0,0,0,0,0.1,0c0.1,0,0.2,0,0.3-0.1
		c0.4-0.1,0.8-0.2,1.2-0.1c0.2,0,0.3,0,0.3,0C19.4,16.7,19.4,16.7,19.4,16.7z"/>
</g>
<g>
	<path class="st1" d="M18.9,16.8c0.1-0.4,0.1-0.8,0-1.3c-0.1-0.7-0.4-1-0.8-1c-0.4,0.1-0.4,0.6-0.3,1.3c0.1,0.3,0.2,0.6,0.4,0.9
		C18.5,17.2,18.7,17.1,18.9,16.8L18.9,16.8z"/>
</g>
<g>
	<path class="st1" d="M110.4,19.6c-0.8,0-1.3-1-1.3-2.3c0-1.3,0.6-2.3,1.3-2.3c0.9,0,1.3,0.8,1.3,2.3
		C111.7,18.8,111.4,19.6,110.4,19.6z M111.3,12.2c-1.3,0-2.4,0.8-2.8,2c-0.2,0.5-0.2,0.6-0.4,0.6c-0.2,0,0-0.4,0.1-0.8
		c0.1-0.5,0.1-1.1,0.1-1.6h-2.4v11.7h3.3v-3.7c0.4,0.8,1.3,1.4,2.2,1.4c2.4,0,3.6-2,3.6-4.8C115,13.9,113.6,12.2,111.3,12.2
		L111.3,12.2z M86.6,12.4v9.1h3.3v-9.1c-0.5,0.2-1.1,0.4-1.7,0.3C87.6,12.8,87.1,12.7,86.6,12.4L86.6,12.4z M82.4,12.2
		c-1.9,0-2.7,1.8-2.8,2.1c-0.1,0.3-0.2,0.5-0.3,0.5c-0.2,0-0.1-0.4,0-0.6c0.3-1,0.5-2.1,0.5-3.2c0-0.5,0-0.9-0.1-1.4h-2.9v11.9h3.3
		V17c0-0.7,0.3-2,1.1-2c0.7,0,0.9,0.5,0.9,1.5v5h3.3v-4.8C85.5,14.4,85.1,12.2,82.4,12.2L82.4,12.2z M70.5,17c0-0.8,0.8-1.6,2.2-1.6
		c1.1,0,2.1,0.3,3,0.9v-3.2c0,0-1-0.9-3.4-0.9c-2.5,0-4.6,1.5-4.6,4.6s1.9,4.9,4.6,4.9c1.2,0,2.4-0.4,3.4-1.2v-3
		c-0.9,0.6-1.9,0.9-3,1C71.1,18.6,70.5,17.9,70.5,17L70.5,17z M63.5,9.7h3.3v11.9h-3.3V9.7z M53.2,19.4c-0.8,0.2-1.2-0.1-1.2-0.6
		c0-0.7,0.7-1,1.8-1c0.5,0,0.9,0,0.9,0C54.5,18.6,54,19.2,53.2,19.4z M54.1,12.2c-1.5,0-3,0.3-4.4,0.9v2.7c0,0,2-1.2,3.7-1.2
		c1.3,0,1.5,0.7,1.4,1.3c-0.5-0.1-1-0.1-1.5-0.1c-2.7,0-4.1,1.2-4.1,3.2c0,1.9,1.5,2.7,2.8,2.7c1.3,0,2.5-0.7,3-1.9
		c0.2-0.4,0.2-0.7,0.4-0.7c0.2,0,0.1,0.2,0.1,0.6c0,0.6,0,1.2,0.1,1.7h2.5v-4.5C58.1,14.3,57.1,12.2,54.1,12.2L54.1,12.2z
		 M101.7,12.2c-1.1,0.1-2.1,0.8-2.5,1.9c-0.2,0.4-0.2,0.7-0.4,0.7c-0.2,0-0.1-0.4-0.2-0.9c-0.3-1.1-1.3-1.8-2.4-1.7
		c-1.5,0-2.2,1.3-2.5,2c-0.2,0.5-0.2,0.6-0.4,0.6c-0.2,0,0-0.4,0.1-0.8c0.1-0.5,0.1-1.1,0.1-1.6H91v9.1h3.3V17c0-0.9,0.4-2,1-2
		c0.7,0,0.9,0.6,0.9,1.6v5h3.3V17c0-0.8,0.3-2,1-2c0.8,0,0.9,0.8,0.9,1.6v5h3.3v-5.4C104.8,13.8,103.9,12.2,101.7,12.2L101.7,12.2z
		 M45.3,12.2c-1.1,0.1-2.1,0.8-2.5,1.9c-0.2,0.4-0.2,0.7-0.4,0.7c-0.2,0-0.1-0.3-0.2-0.9c-0.3-1.1-1.3-1.8-2.4-1.7
		c-1.5,0-2.2,1.3-2.5,2c-0.2,0.5-0.2,0.6-0.4,0.6c-0.2,0,0-0.4,0.1-0.8c0.1-0.5,0.1-1.1,0.1-1.6h-2.4v9.1H38V17c0-0.9,0.4-2,1-2
		c0.7,0,0.9,0.6,0.9,1.6v5h3.3V17c0-0.8,0.3-2,1-2c0.8,0,0.9,0.8,0.9,1.6v5h3.3v-5.4C48.4,13.8,47.5,12.2,45.3,12.2L45.3,12.2z
		 M86.2,10.9c0-0.7,0.9-1.3,2-1.3s2,0.6,2,1.3s-0.9,1.3-2,1.3C87.1,12.2,86.2,11.6,86.2,10.9L86.2,10.9z M60.8,12.8
		c0.6,0,1.1-0.1,1.7-0.3v9.1h-3.3v-9.1L60.8,12.8z M58.8,10.9c0-0.7,0.9-1.3,2-1.3c1.1,0,2,0.6,2,1.3s-0.9,1.3-2,1.3
		C59.7,12.2,58.8,11.6,58.8,10.9z"/>
</g>
</svg>
