<?xml version="1.0" encoding="utf-8"?>
<!-- Generator: Adobe Illustrator 24.1.2, SVG Export Plug-In . SVG Version: 6.00 Build 0)  -->
<svg version="1.1" id="Layer_1" xmlns="http://www.w3.org/2000/svg" xmlns:xlink="http://www.w3.org/1999/xlink" x="0px" y="0px"
	 width="120px" height="19.5px" viewBox="0 0 120 19.5" style="enable-background:new 0 0 120 19.5;" xml:space="preserve">
<style type="text/css">
	.st0{fill:#03363D;}
	.st1{fill:#FFFFFF;}
</style>
<path class="st0" d="M0.6,4.4C0.2,4.6,0,4.9,0,5.3v8.8c0,0.4,0.2,0.7,0.6,0.9L8,19.4c0.3,0.2,0.8,0.2,1.1,0l7.5-4.3
	c0.4-0.2,0.6-0.5,0.6-0.9V5.3c0-0.5-0.2-0.8-0.6-0.9L9.1,0.1C8.8,0,8.4,0,8,0.1L0.6,4.4z"/>
<g>
	<path class="st1" d="M15.1,7.9c-3.5,0-6.4,3-6.4,6.7v0.2H8.4v-0.2c0-3.7-2.9-6.6-6.4-6.7c0,0.2,0,0.5,0,0.7c0,2.9,1.8,5.3,4.2,6.3
		c0.8,0.3,1.6,0.4,2.4,0.4c0.8,0,1.6-0.1,2.4-0.4c2.5-0.9,4.2-3.4,4.2-6.3C15.2,8.4,15.2,8.1,15.1,7.9z"/>
	<circle class="st1" cx="8.6" cy="6.2" r="2.1"/>
</g>
<g>
	<path class="st0" d="M21.9,4.5c0-0.2,0.2-0.4,0.4-0.4h0h1.4c0.2,0,0.4,0.2,0.4,0.4v4.3l4-4.5c0.1-0.1,0.2-0.2,0.3-0.2h1.6
		c0.2,0,0.3,0.1,0.4,0.3c0,0.1,0,0.2-0.1,0.3l-4.1,4.7l4.4,5.3c0.1,0.2,0.1,0.4-0.1,0.5c-0.1,0-0.1,0.1-0.2,0.1h-1.7
		c-0.1,0-0.2,0-0.3-0.1L24.1,10v4.8c0,0.2-0.2,0.4-0.4,0.4h-1.4c-0.2,0-0.4-0.2-0.4-0.4v0V4.5z"/>
	<path class="st0" d="M31.7,4.5c0-0.2,0.2-0.3,0.3-0.3h1.3c0.2,0,0.3,0.2,0.3,0.3v3.9c0.4-0.3,1-0.6,1.9-0.6c2.3,0,3,1.6,3,3.5v3.7
		c0,0.2-0.2,0.3-0.3,0.4h-1.3c-0.2,0-0.3-0.2-0.3-0.4v-3.7c0-1-0.5-1.6-1.3-1.6c-0.9,0-1.3,0.5-1.5,1.3v4c0,0.2-0.1,0.4-0.4,0.4H32
		c-0.2,0-0.3-0.2-0.3-0.4L31.7,4.5L31.7,4.5z"/>
	<path class="st0" d="M42.5,10.6c0.5,0,0.9,0.1,1.4,0.2c0-0.9-0.2-1.4-1-1.4c-0.7,0-1.4,0.1-2.1,0.3c-0.2,0.1-0.4-0.1-0.4-0.3
		l-0.2-0.8c-0.1-0.2,0-0.4,0.2-0.4c0,0,0,0,0,0c0.8-0.2,1.7-0.4,2.5-0.4c2.3,0,2.8,1.2,2.8,3.2v4c0,0.2-0.2,0.3-0.3,0.4h-0.5
		c-0.1,0-0.2-0.1-0.3-0.3l-0.2-0.5c-0.6,0.6-1.4,0.9-2.3,0.9c-1.5,0-2.5-0.9-2.5-2.5C39.6,11.6,40.6,10.6,42.5,10.6z M42.5,13.9
		c0.6,0,1.2-0.5,1.3-0.8v-1.1c-0.3-0.1-0.7-0.2-1.1-0.2c-0.8,0-1.3,0.4-1.3,1C41.5,13.5,41.9,13.9,42.5,13.9L42.5,13.9z"/>
	<path class="st0" d="M47.4,8.3c0-0.2,0.2-0.3,0.3-0.4h0.6c0.1,0,0.3,0.1,0.3,0.2l0.3,0.7c0.6-0.7,1.5-1.1,2.4-1.1
		c2.3,0,2.9,1.6,2.9,3.3v3.8c0,0.2-0.2,0.3-0.3,0.4h-1.3c-0.2,0-0.3-0.2-0.3-0.4v-3.8c0-0.9-0.4-1.5-1.3-1.5c-0.7,0-1.4,0.4-1.6,1.1
		v4.2c0,0.3-0.1,0.4-0.5,0.4h-1.2c-0.2,0-0.3-0.2-0.3-0.4L47.4,8.3z"/>
	<path class="st0" d="M58,14.8l4.9-10.7C63,4,63.1,4,63.2,4h0.2c0.1,0,0.2,0.1,0.3,0.2l4.9,10.7c0.1,0.1,0,0.3-0.1,0.4
		c-0.1,0-0.1,0-0.2,0h-1.4c-0.2,0-0.3-0.1-0.5-0.3l-0.8-1.7h-4.7l-0.8,1.7c-0.1,0.2-0.3,0.3-0.5,0.3h-1.4c-0.2,0-0.3-0.1-0.3-0.3
		C57.9,14.9,58,14.9,58,14.8z M64.8,11.4l-1.6-3.5h-0.1l-1.6,3.5H64.8z"/>
	<path class="st0" d="M72.6,7.8c1.1,0,2,0.5,2.7,1.2c0.2,0.2,0.1,0.4-0.1,0.5l-0.7,0.7c-0.2,0.2-0.3,0.1-0.5-0.1
		c-0.3-0.3-0.8-0.6-1.5-0.6c-1.1,0-1.9,0.9-1.9,2s0.8,2,1.9,2c0.8,0,1.2-0.4,1.6-0.8c0.1-0.1,0.3-0.2,0.5-0.1l0.7,0.6
		c0.2,0.2,0.3,0.3,0.1,0.5c-0.6,1-1.6,1.5-2.9,1.5c-2.1,0-3.9-1.6-3.9-3.8C68.7,9.4,70.4,7.8,72.6,7.8z"/>
	<path class="st0" d="M79.4,10.6c0.5,0,0.9,0.1,1.4,0.2c0-0.9-0.2-1.4-1-1.4c-0.7,0-1.4,0.1-2.1,0.3c-0.2,0.1-0.4-0.1-0.4-0.3
		l-0.2-0.8c-0.1-0.2,0-0.4,0.2-0.4c0,0,0,0,0,0c0.8-0.2,1.7-0.4,2.5-0.4c2.3,0,2.8,1.2,2.8,3.2v4c0,0.2-0.2,0.3-0.3,0.4h-0.5
		c-0.1,0-0.2-0.1-0.3-0.3l-0.2-0.5c-0.6,0.6-1.4,0.9-2.3,0.9c-1.5,0-2.5-0.9-2.5-2.5C76.4,11.6,77.5,10.6,79.4,10.6z M79.4,13.9
		c0.6,0,1.2-0.5,1.3-0.8v-1.1c-0.3-0.1-0.7-0.2-1.1-0.2c-0.8,0-1.3,0.4-1.3,1C78.3,13.5,78.7,13.9,79.4,13.9z"/>
	<path class="st0" d="M87.5,7.8c0.6,0,1.2,0.1,1.8,0.3V4.5c0-0.2,0.2-0.3,0.4-0.3h1.3c0.2,0,0.3,0.2,0.3,0.3v10.4
		c0,0.2-0.2,0.3-0.3,0.4h-0.6c-0.2,0-0.3-0.1-0.4-0.4l-0.2-0.6c-0.6,0.7-1.5,1.1-2.4,1.1c-2,0-3.5-1.6-3.5-3.8
		C83.9,9.4,85.3,7.8,87.5,7.8z M89.3,10c-0.5-0.3-1-0.4-1.5-0.4c-1.2,0-1.8,1-1.8,2s0.6,2,1.7,2c0.9,0,1.5-0.6,1.6-1L89.3,10
		L89.3,10z"/>
	<path class="st0" d="M96.2,7.8c1.9,0,3.4,1.4,3.4,3.4c0,0.1,0,0.4,0,0.5c0,0.2-0.2,0.3-0.3,0.3h-4.7c0,0.9,0.8,1.7,1.8,1.7
		c0.6,0,1.1-0.2,1.6-0.5c0.2-0.1,0.4-0.2,0.5,0l0.6,0.8c0.1,0.1,0.1,0.3,0,0.4c0,0,0,0-0.1,0c-0.8,0.7-1.7,1-2.7,1
		c-2.2,0-3.7-1.7-3.7-3.8C92.5,9.5,94,7.8,96.2,7.8z M97.6,10.7c0-0.7-0.6-1.3-1.4-1.3c-0.9,0-1.5,0.5-1.6,1.3H97.6z"/>
	<path class="st0" d="M100.8,8.3c0-0.2,0.2-0.3,0.3-0.4h0.6c0.1,0,0.3,0.1,0.3,0.2l0.3,0.7c0.5-0.7,1.4-1.1,2.2-1.1
		c1.1,0,1.6,0.4,2.2,1.1c0.3-0.3,1-1.1,2.4-1.1c2.3,0,2.9,1.5,2.9,3.4v3.8c0,0.2-0.2,0.4-0.4,0.4l0,0h-1.3c-0.2,0-0.3-0.2-0.3-0.4
		v-3.8c0-0.9-0.4-1.5-1.3-1.5c-1.1,0-1.4,0.8-1.4,0.8s0,0.4,0,0.7v3.9c0,0.2-0.2,0.3-0.3,0.4h-1.3c-0.2,0-0.3-0.1-0.4-0.3v0v-3.8
		c0-0.9-0.3-1.5-1.2-1.5c-0.9,0-1.2,0.6-1.4,1.1v4.2c0,0.2-0.2,0.3-0.3,0.4h-1.3c-0.2,0-0.3-0.2-0.3-0.4L100.8,8.3L100.8,8.3z"/>
	<path class="st0" d="M112.7,8.4c-0.1-0.3,0-0.5,0.3-0.5h1.5c0.1,0,0.3,0.1,0.3,0.2l1.3,4.4h0l1.7-4.4c0.1-0.2,0.2-0.2,0.5-0.2h1.3
		c0.2,0,0.3,0.1,0.4,0.3c0,0.1,0,0.1,0,0.2l-4.3,10.4c-0.1,0.1-0.2,0.2-0.3,0.2h-1.5c-0.2,0-0.3-0.1-0.4-0.3c0-0.1,0-0.1,0-0.2
		l1.5-3.7L112.7,8.4z"/>
</g>
</svg>
