<?xml version="1.0" encoding="utf-8"?>
<!-- Generator: Adobe Illustrator 24.1.2, SVG Export Plug-In . SVG Version: 6.00 Build 0)  -->
<svg version="1.1" id="Layer_1" xmlns="http://www.w3.org/2000/svg" xmlns:xlink="http://www.w3.org/1999/xlink" x="0px" y="0px"
	 width="133px" height="20.9px" viewBox="0 0 133 20.9" style="enable-background:new 0 0 133 20.9;" xml:space="preserve">
<style type="text/css">
	.st0{fill:#03363D;}
	.st1{fill:#FFFFFF;}
</style>
<desc>Created with Sketch.</desc>
<path id="path4645" class="st0" d="M0,20.9h120.9L133,0H0V20.9z"/>
<g id="g4649">
	<g id="g4655" transform="translate(34.548904,751.66051)">
		<path id="path4657" class="st1" d="M-11.6-744.2c-0.5-0.4-1.1-0.5-1.7-0.5c-0.7,0-1.3,0.5-1.3,1c0,0.4,0.2,0.6,0.7,0.7l0.8,0.2
			c1,0.4,1.6,0.8,1.6,1.7c0,1.7-1.5,3-3.8,3c-1.1,0-1.9-0.2-2.5-0.7l0.8-1.2c0.6,0.4,1.2,0.6,2.1,0.6c1,0,1.6-0.5,1.6-1.3
			c0-0.4-0.2-0.6-0.8-0.8l-0.8-0.2c-0.8-0.2-1.5-0.7-1.5-1.6c0-1.6,1.5-2.8,3.3-2.8c1,0,1.8,0.2,2.4,0.7L-11.6-744.2z"/>
	</g>
	<g id="g4659" transform="translate(40.7229,749.51601)">
		<path id="path4661" class="st1" d="M-13.6-740.5h-1l-0.6,2.9c0,0.2,0,0.4,0,0.5c0,0.4,0.1,0.4,0.5,0.4c0.1,0,0.4,0,0.6-0.1v0.8
			c-0.5,0.1-0.8,0.2-1.2,0.2c-0.8,0-1.3-0.4-1.3-1c0-0.2,0-0.5,0.1-0.7l0.6-3.1h-0.6l0.2-1h0.6c0.1-0.6,0.2-1,0.4-1.3l1.6-0.4
			c-0.1,0.5-0.4,1.1-0.5,1.7h1.3L-13.6-740.5z"/>
	</g>
	<g id="g4663" transform="translate(46.086899,749.4826)">
		<path id="path4665" class="st1" d="M-15.4-740.5c-0.4,0-0.6,0-1.1,0.5c-0.5,0.6-0.7,1.7-0.7,2.4c0,0.5,0.1,0.7,0.5,0.7
			c0.5,0,1-0.5,1.1-0.8l0.6-2.7C-15-740.4-15.2-740.5-15.4-740.5 M-13.7-739.8l-0.5,2.2c-0.1,0.5,0,0.8,0.2,1.1l-1.2,1
			c-0.2-0.1-0.4-0.5-0.5-0.7c-0.5,0.5-0.8,0.7-1.6,0.7c-1.1,0-1.6-0.6-1.6-1.8c0-1.3,0.5-2.5,1.2-3.3c0.6-0.6,1.3-0.8,2.3-0.8
			c0.7,0,1.5,0.1,1.9,0.4C-13.4-740.9-13.5-740.3-13.7-739.8"/>
	</g>
	<g id="g4667" transform="translate(53.004303,751.31531)">
		<path id="path4669" class="st1" d="M-17.7-743.6c0.1,0.2,0.1,0.7,0.1,1c0.5-0.5,1.1-0.8,1.9-0.8c0.7,0,1.1,0.5,1.1,1.1
			c0,0.2,0,0.6-0.1,0.8l-0.8,3.9h-1.5l0.8-3.8c0-0.2,0.1-0.4,0.1-0.5c0-0.2-0.1-0.4-0.4-0.4c-0.4,0-0.7,0.2-1.2,0.8l-0.8,3.8h-1.5
			l0.8-3.9c0.1-0.6,0.1-1.1,0-1.5L-17.7-743.6z"/>
	</g>
	<g id="g4671" transform="translate(62.691406,752.2722)">
		<path id="path4673" class="st1" d="M-20.8-745.2l-0.8,4.2c-0.1,0.7-0.2,1-0.2,1.1c0,0.2,0.1,0.4,0.2,0.4h0.1l0.1,0.8
			c-0.2,0.1-0.6,0.1-1,0.1c-0.8,0-1.2-0.5-1.2-1c0-0.2,0.1-0.6,0.1-1.1l0.8-4.2c0.1-0.7,0.2-1.2,0.1-1.7l1.6-0.5
			C-20.6-746.7-20.6-745.9-20.8-745.2"/>
	</g>
	<g id="g4675" transform="translate(66.553406,747.55321)">
		<path id="path4677" class="st1" d="M-22.1-737.3c0.6,0,1.3-0.2,1.3-0.8c0-0.4-0.1-0.6-0.6-0.6c-0.6,0-1,0.4-1.2,1.3
			C-22.4-737.3-22.2-737.3-22.1-737.3 M-19.9-734.5c-0.7,0.5-1.5,0.7-2.3,0.7c-1.3,0-2.2-0.7-2.2-2.1c0-1.2,0.5-2.4,1.3-3.1
			c0.6-0.5,1.2-0.7,1.9-0.7c1.1,0,1.9,0.5,1.9,1.6s-1,1.9-2.9,1.9c-0.4,0-0.7-0.1-0.7-0.1s0,0.4,0,0.5c0,0.6,0.4,1,1,1
			c0.5,0,1.1-0.2,1.6-0.6L-19.9-734.5z"/>
	</g>
	<g id="g4679" transform="translate(74.212097,751.16611)">
		<path id="path4681" class="st1" d="M-24.6-743.3l0.2,3.3c0,0.4,0,1.2,0,1.2s0.4-1,0.7-1.7l1.5-2.7h1.6l-3.3,5.8
			c-0.6,1.1-1,1.6-1.5,1.9c-0.5,0.2-1,0.5-1.5,0.5l-0.2-1c0.4-0.1,0.7-0.2,1-0.4c0.5-0.2,0.6-0.5,1-1.1h-0.4c0-0.4-0.1-1.1-0.1-1.6
			l-0.5-4L-24.6-743.3z"/>
	</g>
	<g id="g4683" transform="translate(83.660995,749.4646)">
		<path id="path4685" class="st1" d="M-27.7-740.4h1c0.5,0,0.6-0.1,0.8-0.2c0.2-0.1,0.5-0.5,0.5-0.8c0-0.5-0.2-0.7-0.8-0.7h-1
			L-27.7-740.4z M-28.3-737h1c0.4,0,0.6-0.1,0.8-0.2c0.4-0.2,0.6-0.7,0.6-1.1c0-0.5-0.2-0.7-1-0.7h-1.1L-28.3-737z M-25.7-743.6
			c1.2,0,2.1,0.6,2.1,1.7c0,0.7-0.5,1.6-1.6,1.9c0.7,0.1,1.2,0.7,1.2,1.5c0,0.5-0.2,1.2-0.7,1.8c-0.6,0.6-1.2,0.8-2.4,0.8H-30
			l1.7-7.7H-25.7z"/>
	</g>
	<g id="g4687" transform="translate(93.9617,752.2722)">
		<path id="path4689" class="st1" d="M-31-745.2l-0.8,4.2c-0.1,0.7-0.2,1-0.2,1.1c0,0.2,0.1,0.4,0.2,0.4h0.1l0.1,0.8
			c-0.2,0.1-0.6,0.1-1,0.1c-0.8,0-1.2-0.5-1.2-1c0-0.2,0.1-0.6,0.1-1.1l0.8-4.2c0.1-0.7,0.2-1.2,0.1-1.7l1.6-0.5
			C-30.8-746.7-30.8-745.9-31-745.2"/>
	</g>
	<g id="g4691" transform="translate(99.542099,749.4826)">
		<path id="path4693" class="st1" d="M-32.8-740.5c-0.4,0-0.6,0-1.1,0.5c-0.5,0.6-0.7,1.7-0.7,2.4c0,0.5,0.1,0.7,0.5,0.7
			c0.5,0,1-0.5,1.1-0.8l0.6-2.7C-32.4-740.4-32.7-740.5-32.8-740.5 M-31.1-739.8l-0.5,2.2c-0.1,0.5,0,0.8,0.2,1.1l-1.2,1
			c-0.2-0.1-0.4-0.5-0.5-0.7c-0.4,0.5-0.8,0.7-1.5,0.7c-1.1,0-1.6-0.6-1.6-1.8c0-1.3,0.5-2.5,1.2-3.3c0.6-0.6,1.3-0.8,2.3-0.8
			c0.7,0,1.5,0.1,1.9,0.4C-30.9-740.9-31-740.3-31.1-739.8"/>
	</g>
	<g id="g4695" transform="translate(109.1628,748.88811)">
		<path id="path4697" class="st1" d="M-36-739.5c-0.2-0.2-0.6-0.4-0.8-0.4s-0.5,0.1-0.7,0.4c-0.4,0.5-0.8,1.7-0.8,2.5
			c0,0.6,0.2,0.8,0.7,0.8c0.4,0,0.8-0.2,1.2-0.6l0.5,1c-0.6,0.5-1.2,0.7-2.1,0.7c-1.2,0-1.9-0.7-1.9-1.9c0-1.5,0.6-2.7,1.5-3.4
			c0.5-0.5,1.1-0.7,1.8-0.7c0.5,0,1.1,0.2,1.5,0.7L-36-739.5z"/>
	</g>
	<g id="g4699" transform="translate(119.2789,751.0351)">
		<path id="path4701" class="st1" d="M-39.2-743.1l-2.3,2.4l1.6,3.3h-1.8l-1.2-3.3l1.9-2.4H-39.2z M-42.2-745.7
			c0.1,0.2,0.1,1-0.2,2.2l-1.3,6.2h-1.5l1.3-6.3c0.1-0.8,0.2-1.2,0.1-1.6L-42.2-745.7z"/>
	</g>
	<g id="g4703" transform="translate(125.40269,751.2317)">
		<path id="path4705" class="st1" d="M-41.3-743.4c0-0.4-0.2-0.6-0.6-0.6c-0.5,0-0.8,0.4-0.8,1c0,0.2,0.1,0.5,0.5,0.8
			C-41.7-742.5-41.3-743-41.3-743.4 M-43.8-739.3c0,0.5,0.4,0.8,1.1,0.8c0.5,0,1-0.1,1.2-0.4l-1.5-1.7
			C-43.6-740.4-43.8-739.9-43.8-739.3 M-39-741.4c-0.1,0.7-0.5,1.6-0.8,2.2l1.3,1.6h-1.9l-0.4-0.5c-0.5,0.4-1.2,0.6-2.3,0.6
			c-1.6,0-2.4-0.7-2.4-1.8c0-1,0.6-1.8,1.8-2.3c-0.5-0.5-0.6-0.8-0.6-1.3c0-1.2,1.1-2.2,2.7-2.2c1.1,0,1.8,0.6,1.8,1.3
			c0,0.8-0.4,1.5-1.7,2.2l-0.1,0.1l1,1.2c0.2-0.4,0.4-1,0.4-1.2h1.3C-39-741.5-39-741.4-39-741.4z"/>
	</g>
	<g id="g4707" transform="translate(133.32719,744.4649)">
		<path id="path4709" class="st1" d="M-43.9-732.2h0.7c0.7,0,1.2-0.4,1.5-0.8c0.7-1.1,0.8-2.7,0.8-3c0-0.7-0.2-1.3-1.2-1.3h-0.7
			L-43.9-732.2z M-42.3-738.6c1.3,0,2.1,0.1,2.5,0.7c0.4,0.5,0.6,1,0.6,1.9c0,1.2-0.5,2.9-1.5,4c-0.8,0.8-1.6,1.2-3.3,1.2h-1.9
			l1.7-7.7L-42.3-738.6L-42.3-738.6z"/>
	</g>
	<g id="g4711" transform="translate(144.3022,747.55321)">
		<path id="path4713" class="st1" d="M-47.4-737.3c0.6,0,1.3-0.2,1.3-0.8c0-0.4-0.1-0.6-0.6-0.6c-0.6,0-1,0.4-1.2,1.3
			C-47.8-737.3-47.6-737.3-47.4-737.3 M-45.2-734.5c-0.7,0.5-1.5,0.7-2.3,0.7c-1.3,0-2.2-0.7-2.2-2.1c0-1.2,0.5-2.4,1.3-3.1
			c0.6-0.5,1.2-0.7,1.9-0.7c1.1,0,1.9,0.5,1.9,1.6s-1,1.9-2.9,1.9c-0.4,0-0.7-0.1-0.7-0.1s0,0.4,0,0.5c0,0.6,0.4,1,1,1
			c0.5,0,1.1-0.2,1.6-0.6L-45.2-734.5z"/>
	</g>
	<g id="g4715" transform="translate(155.2123,748.88811)">
		<path id="path4717" class="st1" d="M-51-739.5c-0.2-0.2-0.6-0.4-0.8-0.4c-0.2,0-0.5,0.1-0.7,0.4c-0.4,0.5-0.8,1.7-0.8,2.5
			c0,0.6,0.2,0.8,0.7,0.8c0.4,0,0.8-0.2,1.2-0.6l0.5,1c-0.6,0.5-1.2,0.7-2.1,0.7c-1.2,0-1.9-0.7-1.9-1.9c0-1.5,0.6-2.7,1.5-3.4
			c0.5-0.5,1.1-0.7,1.8-0.7c0.5,0,1.1,0.2,1.5,0.7L-51-739.5z"/>
	</g>
	<g id="g4719" transform="translate(165.3273,751.0351)">
		<path id="path4721" class="st1" d="M-54.3-743.1l-2.3,2.4l1.6,3.3h-1.8l-1.2-3.3l1.9-2.4H-54.3z M-57.2-745.7
			c0.1,0.2,0.1,1-0.2,2.2l-1.3,6.2h-1.5l1.3-6.3c0.1-0.8,0.2-1.2,0.1-1.6L-57.2-745.7z"/>
	</g>
	<g id="g4723" transform="translate(168.466,747.55321)">
		<path id="path4725" class="st1" d="M-55.4-737.3c0.6,0,1.3-0.2,1.3-0.8c0-0.4-0.1-0.6-0.6-0.6c-0.6,0-1,0.4-1.2,1.3
			C-55.7-737.3-55.5-737.3-55.4-737.3 M-53.1-734.5c-0.7,0.5-1.5,0.7-2.3,0.7c-1.3,0-2.2-0.7-2.2-2.1c0-1.2,0.5-2.4,1.3-3.1
			c0.6-0.5,1.2-0.7,1.9-0.7c1.1,0,1.9,0.5,1.9,1.6s-1,1.9-2.9,1.9c-0.4,0-0.7-0.1-0.7-0.1s0,0.4,0,0.5c0,0.6,0.4,1,1,1
			c0.5,0,1.1-0.2,1.6-0.6L-53.1-734.5z"/>
	</g>
	<g id="g4727" transform="translate(176.5033,751.31531)">
		<path id="path4729" class="st1" d="M-57.9-743.6c0.1,0.2,0.1,0.6,0.1,1c0.5-0.5,1.1-0.8,1.6-0.8c0.2,0,0.4,0,0.5,0.1l-0.6,1.3
			c-0.1-0.1-0.2-0.1-0.5-0.1c-0.2,0-0.6,0.1-1.1,0.7l-0.8,3.8h-1.5l0.8-3.8c0.1-0.7,0.1-1.2,0-1.6L-57.9-743.6z"/>
	</g>
</g>
</svg>
