<?xml version="1.0" encoding="utf-8"?>
<!-- Generator: Adobe Illustrator 24.1.2, SVG Export Plug-In . SVG Version: 6.00 Build 0)  -->
<svg version="1.1" id="Layer_1" xmlns="http://www.w3.org/2000/svg" xmlns:xlink="http://www.w3.org/1999/xlink" x="0px" y="0px"
	 width="91px" height="25.2px" viewBox="0 0 91 25.2" style="enable-background:new 0 0 91 25.2;" xml:space="preserve">
<style type="text/css">
	.st0{fill:#03363D;}
</style>
<g transform="translate(.687 .53)">
	<path class="st0" d="M6.3,20.3h11.1c0.1,0,0.1,0.1,0,0.1c-1.2,0.6-3.1,2.3-3.1,2.3c-1.2,1.2-2.2,2-4.3,2H-0.6c-0.1,0-0.1-0.1,0-0.1
		c1.2-0.7,2.9-2.4,2.9-2.4C3,21.4,4.5,20.3,6.3,20.3 M79.1,20.3h11.1c0.1,0,0.1,0.1,0,0.1c-1.3,0.6-3,2.3-3,2.3
		c-1.3,1.2-2.3,2-4.3,2H72.3c-0.1,0-0.1-0.1,0-0.1c1.2-0.7,2.9-2.4,2.9-2.4C75.8,21.4,77.3,20.3,79.1,20.3 M24.5,20.3h11.1
		c0.1,0,0.1,0.1,0,0.1c-1.2,0.6-3,2.3-3,2.3c-1.2,1.2-2.2,2-4.3,2H17.6c-0.1,0-0.1-0.1-0.1-0.1c1.2-0.7,2.9-2.4,2.9-2.4
		C21.2,21.4,22.7,20.3,24.5,20.3 M42.7,20.3h11.1c0.1,0,0.1,0.1,0,0.1c-1.2,0.6-3,2.3-3,2.3c-1.2,1.2-2.2,2-4.3,2H35.8
		c-0.1,0-0.1-0.1-0.1-0.1c1.2-0.7,2.9-2.4,2.9-2.4C39.4,21.4,40.9,20.3,42.7,20.3 M60.9,20.3H72c0.1,0,0.1,0.1-0.1,0.1
		c-1.2,0.6-3,2.3-3,2.3c-1.2,1.2-2.2,2-4.3,2H54c-0.1,0-0.1-0.1,0-0.1c1.2-0.7,2.9-2.4,2.9-2.4C57.6,21.4,59.1,20.3,60.9,20.3"/>
	<path class="st0" d="M63.9-0.5c-7,0-11.7,3.5-11.7,8.8c0,4.8,4.3,8.1,10.6,8.1c2.1,0,3.9-0.3,6-0.8v-4.1c-1.5,1.6-3.3,2.2-5.2,2.2
		c-3.7,0-6.4-2.4-6.4-5.8C57.3,4.5,60,2,63.7,2c2,0,3.6,0.7,4.9,2v-4.1C67.3-0.3,65.6-0.5,63.9-0.5 M11.7,2.4c2.6,0,5.7,0.5,7,1.6
		V0.1H0.3v3.9c1.3-1,4.1-1.5,7.1-1.5V13c0,1.6-0.1,2-0.8,2.8h5.9c-0.7-0.8-0.8-1.2-0.8-2.8L11.7,2.4 M30.5,6.2
		c-1,0.4-2.9,0.5-3.9,0.5H25V2.4h2.1c1.9,0,5,0.4,6.3,1.4V0.1H19.9c0.7,0.7,0.8,1.2,0.8,2.8V13c0,1.6-0.1,2-0.7,2.8h14.2V12
		c-2,1.4-5.7,1.4-7.2,1.4h-2.1V9h1.5c1,0,2.9,0.1,4,0.5L30.5,6.2 M50.4,0.5c-2.2-0.7-4.9-1-7.1-1c-3.9,0-7.7,1.2-7.7,5.2
		c0,6.9,11.7,3.2,11.7,7.5c0,1.4-2.1,2-3.7,2c-2.9,0-5-0.5-7.7-2.1v3.5c2,0.7,4.6,1,7.5,1c4,0,7.8-1.1,7.8-5.2
		c0-7.2-11.6-4-11.6-7.5c0-1.4,1.9-2,3.5-2c2.7,0,5.7,0.8,7.3,2.4L50.4,0.5 M80.3-0.3c-6.3,0-10.7,3.5-10.7,8.4c0,4.8,4,8.1,9.9,8.1
		c6.4,0,10.7-3.3,10.7-8.4C90.2,3,86.2-0.3,80.3-0.3z M79.8,13.8c-3.3,0-5.5-2.6-5.5-5.8s2.2-5.8,5.5-5.8c3.3,0,5.5,2.6,5.5,5.8
		S83.2,13.8,79.8,13.8z"/>
</g>
</svg>
