<?xml version="1.0" encoding="utf-8"?>
<!-- Generator: Adobe Illustrator 24.1.2, SVG Export Plug-In . SVG Version: 6.00 Build 0)  -->
<svg version="1.1" id="Layer_1" xmlns="http://www.w3.org/2000/svg" xmlns:xlink="http://www.w3.org/1999/xlink" x="0px" y="0px"
	 width="80px" height="27.8px" viewBox="0 0 80 27.8" style="enable-background:new 0 0 80 27.8;" xml:space="preserve">
<style type="text/css">
	.st0{fill:#03363D;}
</style>
<path class="st0" d="M10.9,24.1c3.8,0,6.7-2.9,6.7-7.2V0h4.1v27.3h-4.1v-2.5c-1.8,1.9-4.4,3-7.2,3C4.5,27.8,0,23.5,0,17.1V0h4.1
	v16.8C4.1,21.2,7.1,24.1,10.9,24.1 M24.7,0h3.9v9.9c1.8-1.9,4.4-3,7.1-3c5.9,0,10.4,4.6,10.4,10.4c0,5.7-4.6,10.3-10.4,10.3
	c-2.7,0-5.2-1.1-7.1-3v2.5h-3.9L24.7,0z M35.4,24.3c3.7,0,6.8-3.1,6.8-6.9c0-3.9-3.1-6.9-6.8-6.9c-3.7-0.1-6.8,3-6.8,6.8
	S31.6,24.3,35.4,24.3 M57.9,7c5.7,0,9.9,4.4,9.9,10.3v1.3H51.6c0.5,3.3,3.3,5.6,6.6,5.6c2.3,0,4.2-1,5.7-2.9l2.9,2.1
	c-2,2.7-5,4.2-8.6,4.2c-6,0-10.5-4.4-10.5-10.3C47.7,11.7,52,7,57.9,7 M51.7,15.5h12.1c-0.7-3.1-3.1-5-6.1-5S52.4,12.4,51.7,15.5
	 M78.4,10.9c-2.6,0-4.4,2-4.4,5v11.3H70V7.4h3.9v2.4c1-1.6,2.6-2.6,4.8-2.6H80V11L78.4,10.9z"/>
</svg>
